<svg width="345" height="155" viewBox="0 0 345 155" fill="none" xmlns="http://www.w3.org/2000/svg">
<path d="M8.09091 124V30.9091H70.8182V47.1364H27.7727V69.3182H67.5909V85.5455H27.7727V107.773H71V124H8.09091ZM85.4659 124V112.318L131.92 47.1364H85.375V30.9091H156.648V42.5909L110.148 107.773H156.739V124H85.4659ZM171.841 124V30.9091H191.523V107.773H231.432V124H171.841Z" fill="white"/>
<rect x="184" y="107" width="161" height="17" fill="white"/>
<rect x="93" y="107" width="64" height="17" fill="white"/>
<rect x="10" y="107" width="61" height="17" fill="white"/>
<path d="M217.83 31.1818V101H203.068V31.1818H217.83ZM229.974 101V31.1818H276.202V43.3523H244.736V59.9886H273.134V72.1591H244.736V101H229.974ZM283.472 43.3523V31.1818H340.812V43.3523H319.438V101H304.847V43.3523H283.472Z" fill="#FF914D"/>
</svg>
